# MagicaVoxel @ Ephtracy

# group
g example

# material
mtllib example.mtl
usemtl palette

# normals
vn -1 0 0
vn 1 0 0
vn 0 0 1
vn 0 0 -1
vn 0 -1 0
vn 0 1 0

# texcoords
vt 0.0332031 0.5
vt 0.533203 0.5
vt 0.751953 0.5
vt 0.841797 0.5
vt 0.919922 0.5
vt 0.982422 0.5
vt 0.994141 0.5

# verts
v -5 7 2
v -5 7 -0
v -5 9 2
v -5 9 -0
v -5 13 2
v -5 13 -0
v -3 0 2
v -3 0 -0
v -3 1 2
v -3 1 -0
v -3 7 2
v -3 7 -0
v -3 13 3
v -3 13 2
v -3 13 -0
v -3 13 -1
v -3 14 1
v -3 14 -0
v -3 15 2
v -3 15 1
v -3 16 3
v -3 16 2
v -3 18 3
v -3 18 -1
v 0 0 2
v 0 0 -0
v 0 1 2
v 0 1 -0
v 0 7 2
v 0 7 -0
v -1 0 2
v -1 0 -0
v -1 1 2
v -1 1 -0
v -1 7 2
v -1 7 -0
v 2 0 2
v 2 0 -0
v 2 1 2
v 2 1 -0
v 2 7 2
v 2 7 -0
v 2 13 3
v 2 13 2
v 2 13 -0
v 2 13 -1
v 2 14 1
v 2 14 -0
v 2 15 2
v 2 15 1
v 2 16 3
v 2 16 2
v 2 18 3
v 2 18 -1
v 4 7 2
v 4 7 -0
v 4 9 2
v 4 9 -0
v 4 13 2
v 4 13 -0
v -3 13 3
v -3 16 3
v -3 18 3
v -2 15 3
v -2 16 3
v -2 17 3
v -1 13 3
v -1 14 3
v -1 15 3
v -1 16 3
v 0 13 3
v 0 14 3
v 0 15 3
v 0 16 3
v 1 15 3
v 1 16 3
v 1 17 3
v 2 13 3
v 2 16 3
v 2 18 3
v -5 7 2
v -5 9 2
v -5 13 2
v -3 0 2
v -3 1 2
v -3 7 2
v -3 9 2
v -3 13 2
v -1 0 2
v -1 1 2
v -1 7 2
v -1 13 2
v 0 0 2
v 0 1 2
v 0 7 2
v 0 13 2
v 2 0 2
v 2 1 2
v 2 7 2
v 2 9 2
v 2 13 2
v 4 7 2
v 4 9 2
v 4 13 2
v -5 7 -0
v -5 9 -0
v -5 13 -0
v -3 0 -0
v -3 1 -0
v -3 7 -0
v -3 9 -0
v -3 13 -0
v -1 0 -0
v -1 1 -0
v -1 7 -0
v -1 13 -0
v 0 0 -0
v 0 1 -0
v 0 7 -0
v 0 13 -0
v 2 0 -0
v 2 1 -0
v 2 7 -0
v 2 9 -0
v 2 13 -0
v 4 7 -0
v 4 9 -0
v 4 13 -0
v -3 13 -1
v -3 18 -1
v -1 13 -1
v -1 17 -1
v 0 13 -1
v 0 17 -1
v 2 13 -1
v 2 18 -1
v -3 0 2
v -1 0 2
v 0 0 2
v 2 0 2
v -3 0 -0
v -1 0 -0
v 0 0 -0
v 2 0 -0
v -5 7 2
v -3 7 2
v -1 7 2
v 0 7 2
v 2 7 2
v 4 7 2
v -5 7 -0
v -3 7 -0
v -1 7 -0
v 0 7 -0
v 2 7 -0
v 4 7 -0
v -3 13 3
v -1 13 3
v 0 13 3
v 2 13 3
v -3 13 2
v -1 13 2
v 0 13 2
v 2 13 2
v -3 13 -0
v -1 13 -0
v 0 13 -0
v 2 13 -0
v -3 13 -1
v -1 13 -1
v 0 13 -1
v 2 13 -1
v -5 13 2
v -3 13 2
v 2 13 2
v 4 13 2
v -5 13 -0
v -3 13 -0
v 2 13 -0
v 4 13 -0
v -3 18 3
v 2 18 3
v -3 18 -1
v 2 18 -1

# faces
f 3/1/1 2/1/1 1/1/1
f 4/1/1 2/1/1 3/1/1
f 5/3/1 4/3/1 3/3/1
f 6/3/1 4/3/1 5/3/1
f 9/6/1 8/6/1 7/6/1
f 10/6/1 8/6/1 9/6/1
f 11/5/1 10/5/1 9/5/1
f 12/5/1 10/5/1 11/5/1
f 17/1/1 15/1/1 14/1/1
f 17/1/1 14/1/1 13/1/1
f 18/2/1 16/2/1 15/2/1
f 18/1/1 15/1/1 17/1/1
f 19/1/1 17/1/1 13/1/1
f 20/2/1 18/2/1 17/2/1
f 20/1/1 17/1/1 19/1/1
f 21/1/1 19/1/1 13/1/1
f 22/2/1 20/2/1 19/2/1
f 22/1/1 19/1/1 21/1/1
f 23/2/1 22/2/1 21/2/1
f 24/2/1 16/2/1 18/2/1
f 24/2/1 22/2/1 23/2/1
f 24/2/1 18/2/1 20/2/1
f 24/2/1 20/2/1 22/2/1
f 27/6/1 26/6/1 25/6/1
f 28/6/1 26/6/1 27/6/1
f 29/5/1 28/5/1 27/5/1
f 30/5/1 28/5/1 29/5/1
f 31/6/2 32/6/2 33/6/2
f 33/6/2 32/6/2 34/6/2
f 33/5/2 34/5/2 35/5/2
f 35/5/2 34/5/2 36/5/2
f 37/6/2 38/6/2 39/6/2
f 39/6/2 38/6/2 40/6/2
f 39/5/2 40/5/2 41/5/2
f 41/5/2 40/5/2 42/5/2
f 44/1/2 45/1/2 47/1/2
f 43/1/2 44/1/2 47/1/2
f 45/2/2 46/2/2 48/2/2
f 47/1/2 45/1/2 48/1/2
f 43/1/2 47/1/2 49/1/2
f 47/2/2 48/2/2 50/2/2
f 49/1/2 47/1/2 50/1/2
f 43/1/2 49/1/2 51/1/2
f 49/2/2 50/2/2 52/2/2
f 51/1/2 49/1/2 52/1/2
f 51/2/2 52/2/2 53/2/2
f 48/2/2 46/2/2 54/2/2
f 53/2/2 52/2/2 54/2/2
f 50/2/2 48/2/2 54/2/2
f 52/2/2 50/2/2 54/2/2
f 55/1/2 56/1/2 57/1/2
f 57/1/2 56/1/2 58/1/2
f 57/3/2 58/3/2 59/3/2
f 59/3/2 58/3/2 60/3/2
f 64/1/3 62/1/3 61/1/3
f 65/2/3 63/2/3 62/2/3
f 65/1/3 62/1/3 64/1/3
f 66/2/3 63/2/3 65/2/3
f 67/1/3 64/1/3 61/1/3
f 68/1/3 64/1/3 67/1/3
f 69/7/3 65/7/3 64/7/3
f 69/1/3 64/1/3 68/1/3
f 70/1/3 66/1/3 65/1/3
f 70/7/3 65/7/3 69/7/3
f 71/4/3 68/4/3 67/4/3
f 72/1/3 69/1/3 68/1/3
f 72/4/3 68/4/3 71/4/3
f 72/1/3 70/1/3 69/1/3
f 73/1/3 70/1/3 72/1/3
f 74/1/3 66/1/3 70/1/3
f 74/1/3 70/1/3 73/1/3
f 75/1/3 73/1/3 72/1/3
f 75/1/3 72/1/3 71/1/3
f 75/7/3 74/7/3 73/7/3
f 76/1/3 66/1/3 74/1/3
f 76/7/3 74/7/3 75/7/3
f 77/2/3 63/2/3 66/2/3
f 77/1/3 66/1/3 76/1/3
f 78/1/3 76/1/3 75/1/3
f 78/1/3 75/1/3 71/1/3
f 79/2/3 77/2/3 76/2/3
f 79/1/3 76/1/3 78/1/3
f 80/2/3 63/2/3 77/2/3
f 80/2/3 77/2/3 79/2/3
f 86/1/3 82/1/3 81/1/3
f 87/3/3 83/3/3 82/3/3
f 87/1/3 82/1/3 86/1/3
f 88/3/3 83/3/3 87/3/3
f 89/6/3 85/6/3 84/6/3
f 90/5/3 86/5/3 85/5/3
f 90/6/3 85/6/3 89/6/3
f 91/3/3 87/3/3 86/3/3
f 91/5/3 86/5/3 90/5/3
f 91/3/3 88/3/3 87/3/3
f 92/3/3 88/3/3 91/3/3
f 95/3/3 92/3/3 91/3/3
f 96/3/3 92/3/3 95/3/3
f 97/6/3 94/6/3 93/6/3
f 98/5/3 95/5/3 94/5/3
f 98/6/3 94/6/3 97/6/3
f 99/3/3 96/3/3 95/3/3
f 99/5/3 95/5/3 98/5/3
f 100/3/3 96/3/3 99/3/3
f 101/3/3 96/3/3 100/3/3
f 102/1/3 100/1/3 99/1/3
f 103/3/3 101/3/3 100/3/3
f 103/1/3 100/1/3 102/1/3
f 104/3/3 101/3/3 103/3/3
f 105/1/4 106/1/4 110/1/4
f 106/3/4 107/3/4 111/3/4
f 110/1/4 106/1/4 111/1/4
f 111/3/4 107/3/4 112/3/4
f 108/6/4 109/6/4 113/6/4
f 109/5/4 110/5/4 114/5/4
f 113/6/4 109/6/4 114/6/4
f 110/3/4 111/3/4 115/3/4
f 114/5/4 110/5/4 115/5/4
f 111/3/4 112/3/4 115/3/4
f 115/3/4 112/3/4 116/3/4
f 115/3/4 116/3/4 119/3/4
f 119/3/4 116/3/4 120/3/4
f 117/6/4 118/6/4 121/6/4
f 118/5/4 119/5/4 122/5/4
f 121/6/4 118/6/4 122/6/4
f 119/3/4 120/3/4 123/3/4
f 122/5/4 119/5/4 123/5/4
f 123/3/4 120/3/4 124/3/4
f 124/3/4 120/3/4 125/3/4
f 123/1/4 124/1/4 126/1/4
f 124/3/4 125/3/4 127/3/4
f 126/1/4 124/1/4 127/1/4
f 127/3/4 125/3/4 128/3/4
f 129/2/4 130/2/4 131/2/4
f 131/2/4 130/2/4 132/2/4
f 131/1/4 132/1/4 133/1/4
f 132/2/4 130/2/4 134/2/4
f 133/1/4 132/1/4 134/1/4
f 133/2/4 134/2/4 135/2/4
f 134/2/4 130/2/4 136/2/4
f 135/2/4 134/2/4 136/2/4
f 141/6/5 138/6/5 137/6/5
f 142/6/5 138/6/5 141/6/5
f 143/6/5 140/6/5 139/6/5
f 144/6/5 140/6/5 143/6/5
f 151/1/5 146/1/5 145/1/5
f 152/1/5 146/1/5 151/1/5
f 153/3/5 148/3/5 147/3/5
f 154/3/5 148/3/5 153/3/5
f 155/1/5 150/1/5 149/1/5
f 156/1/5 150/1/5 155/1/5
f 161/1/5 158/1/5 157/1/5
f 162/4/5 159/4/5 158/4/5
f 162/1/5 158/1/5 161/1/5
f 163/1/5 160/1/5 159/1/5
f 163/4/5 159/4/5 162/4/5
f 164/1/5 160/1/5 163/1/5
f 169/2/5 166/2/5 165/2/5
f 170/1/5 167/1/5 166/1/5
f 170/2/5 166/2/5 169/2/5
f 171/2/5 168/2/5 167/2/5
f 171/1/5 167/1/5 170/1/5
f 172/2/5 168/2/5 171/2/5
f 173/3/6 174/3/6 177/3/6
f 177/3/6 174/3/6 178/3/6
f 175/3/6 176/3/6 179/3/6
f 179/3/6 176/3/6 180/3/6
f 181/2/6 182/2/6 183/2/6
f 183/2/6 182/2/6 184/2/6
